<svg xmlns="http://www.w3.org/2000/svg" width="200" height="200" viewBox="0 0 200 200">
  <rect width="200" height="200" fill="#f3f4f6"/>
  <g fill="#9ca3af" transform="translate(50 50)">
    <path d="M50 0C22.386 0 0 22.386 0 50s22.386 50 50 50 50-22.386 50-50S77.614 0 50 0zm0 90c-22.091 0-40-17.909-40-40s17.909-40 40-40 40 17.909 40 40-17.909 40-40 40z"/>
    <circle cx="35" cy="40" r="8"/>
    <path d="M20 70l15-15 10 10 20-20 15 15v20H20V70z"/>
  </g>
  <text x="100" y="150" text-anchor="middle" fill="#6b7280" font-family="Arial, sans-serif" font-size="12">
    Product Image
  </text>
</svg>